<svg xmlns="http://www.w3.org/2000/svg" width="130" height="42" viewBox="0 0 130 42" fill="none"><path d="M50.4995 41.0979C49.9562 40.911 49.6246 40.632 49.3983 40.1714C49.1547 39.6757 49.1351 39.156 49.3445 38.7472C49.5784 38.2907 49.9868 37.897 51.1564 37.0002C53.3801 35.2953 54.754 34.5793 59.5089 32.6472C62.433 31.4591 64.1586 30.7976 65.6148 30.3065C66.8912 29.876 67.1312 29.7705 67.3719 29.5339C67.6298 29.2805 67.6508 29.228 67.6508 28.8347C67.6508 28.5191 67.5812 28.2354 67.3807 27.7341C66.8395 26.3809 66.3275 25.6117 63.9795 22.6238C61.4076 19.351 60.0686 16.8953 59.5761 14.548C59.3689 13.5606 59.3836 11.7474 59.6059 10.8585C60.2741 8.18658 61.9982 6.20291 64.8625 4.81028C67.728 3.41705 70.4337 2.8254 73.562 2.90792C75.1676 2.95027 76.2466 3.09206 77.6816 3.44925C79.2542 3.84073 80.2199 4.36481 81.1212 5.31602C82.7626 7.04838 83.1116 9.47986 82.0498 11.7861C81.7913 12.3476 81.2323 13.2139 80.9006 13.5671C80.6773 13.8049 80.372 13.8343 80.1911 13.6353C80.013 13.4393 80.0387 13.2282 80.2903 12.8211C81.6718 10.5857 81.9806 8.04906 81.0491 6.58748C80.3142 5.43425 79.1779 4.74576 77.3272 4.33231C75.7329 3.97613 74.9315 3.8926 73.1159 3.89334C71.2435 3.8941 70.4306 3.98492 68.8556 4.36931C67.0794 4.80276 65.2408 5.57104 63.9669 6.412C63.1824 6.92989 62.0744 7.99269 61.6296 8.654C61.1752 9.32951 60.7635 10.2436 60.5713 11.0038C60.4341 11.5466 60.4062 11.854 60.411 12.7713C60.4196 14.3929 60.6787 15.4162 61.5168 17.139C62.3353 18.8214 63.3796 20.363 65.3707 22.828C67.2766 25.1874 67.9268 26.2581 68.4317 27.8686C68.8201 29.1074 68.927 29.1445 70.1276 28.4577C71.0952 27.9043 71.5952 27.5443 72.0913 27.044C72.3973 26.7353 72.6128 26.5775 72.7279 26.5775C72.9423 26.5775 73.2274 26.8301 73.2274 27.0202C73.2274 27.0976 73.0266 27.4734 72.7813 27.8552C72.5359 28.237 72.3351 28.5979 72.3351 28.6573C72.3351 28.889 72.5614 29.0944 72.8165 29.0944C73.1069 29.0944 73.1755 29.0664 75.4644 28.0133C76.7929 27.4021 77.288 27.209 77.5907 27.184C77.9721 27.1525 77.9946 27.1614 78.2645 27.449C78.4181 27.6126 78.6141 27.8396 78.7 27.9533L78.8562 28.1601L79.3522 27.998C80.4225 27.6482 80.8945 27.8304 82.0122 29.025C82.5304 29.5788 82.8473 29.8569 83.0275 29.9161C83.5586 30.0906 84.1595 29.9614 86.1682 29.2409C90.0864 27.8354 90.0846 27.8359 90.5601 27.8359C90.8134 27.8359 91.0999 27.8845 91.2242 27.9485C91.503 28.092 91.7154 28.5072 91.8103 29.0944C91.9488 29.9505 92.2472 30.1711 93.1879 30.1126C94.6761 30.02 96.7319 29.0118 98.8798 27.3211C99.8064 26.5917 101.497 24.9146 102.092 24.1346C102.575 23.5006 103.267 22.3827 103.267 22.235C103.267 22.1531 102.425 22.1358 98.4373 22.1358C95.1682 22.1358 93.4807 22.1625 93.2139 22.2184C92.5164 22.3647 92.0775 22.634 91.4473 23.3026C90.8028 23.9864 90.6519 24.0389 90.3797 23.6746C90.2309 23.4754 90.2309 23.4709 90.372 23.1564C90.5557 22.747 91.3732 21.9347 91.8665 21.6715C92.7091 21.2221 93.0277 21.1872 97.0761 21.1016C99.111 21.0586 101.431 21.0155 102.232 21.0059L103.688 20.9884L104.054 20.7646C104.352 20.5819 104.541 20.358 105.085 19.5432C106.172 17.9157 107.502 16.7092 108.056 16.8477C108.358 16.9234 108.62 17.2855 108.62 17.6283C108.62 17.9678 108.491 18.237 107.62 19.7173C107.271 20.3114 106.985 20.8154 106.985 20.8374C106.985 20.9502 115.206 20.8599 123.119 20.6601C124.71 20.62 125.733 20.6218 125.814 20.6649C125.998 20.7625 125.991 21.2569 125.805 21.425C125.68 21.5377 125.255 21.5629 121.92 21.6557C119.86 21.7131 115.883 21.7963 113.082 21.8406C108.624 21.9112 107.903 21.9384 107.304 22.0589C104.431 22.637 102.462 24.9564 102.43 27.7989C102.422 28.4943 102.563 28.8385 103.028 29.2567C103.835 29.9827 104.858 29.8897 106.148 28.973C106.863 28.465 107.103 28.2371 107.582 27.6106C107.835 27.28 108.108 27.0054 108.239 26.9516C108.44 26.8688 108.502 26.8809 108.854 27.0701C109.07 27.1859 109.437 27.4662 109.671 27.6928C110.207 28.2135 110.383 28.7045 110.263 29.3485C110.222 29.5732 110.135 29.8577 110.071 29.9809C110.007 30.1041 109.986 30.2048 110.025 30.2048C110.063 30.2048 111.368 29.5712 112.924 28.7968C115.758 27.3868 116.893 26.9201 117.385 26.9627C117.784 26.9971 117.823 27.142 117.621 27.837C117.458 28.4017 117.454 28.4552 117.563 28.6837C117.642 28.8477 117.798 28.9853 118.039 29.1036C118.388 29.2747 118.447 29.2794 120.22 29.2749C122.189 29.2699 122.897 29.1992 126.094 28.6879C127.242 28.5041 127.849 28.3698 128.25 28.2106C129.127 27.8623 129.546 27.92 129.696 28.4097C129.832 28.8523 129.546 29.0429 128.495 29.2122C128.094 29.2766 127.282 29.4255 126.689 29.5431C124.011 30.0738 122.25 30.2772 120.323 30.2781C119.098 30.2787 118.776 30.2533 117.989 30.0938C116.596 29.8113 116.043 29.8485 115.376 30.2696C114.813 30.6248 114.769 30.6238 114.368 30.2458C113.7 29.6157 113.318 29.6207 112.081 30.2759C110.898 30.9019 109.974 31.1167 109.515 30.8721C109.24 30.726 109.07 30.2382 109.068 29.5941C109.067 29.2786 109.041 29.0205 109.011 29.0207C108.656 29.0225 107.556 29.2743 107.289 29.4148C105.226 30.5006 104.833 30.649 104.016 30.649C102.652 30.649 101.824 29.6141 101.516 27.5244C101.454 27.1054 101.395 26.7346 101.385 26.7005C101.375 26.6663 100.794 27.0718 100.094 27.6014C98.0342 29.1613 97.1536 29.7344 95.7197 30.4489C94.7692 30.9226 94.0632 31.1234 93.3404 31.1256C92.615 31.1278 92.098 30.9796 91.4298 30.5781C91.156 30.4135 90.8715 30.2789 90.7976 30.2789C90.7236 30.2789 90.4984 30.3954 90.2971 30.5379C90.0958 30.6805 89.8934 30.797 89.8473 30.797C89.8012 30.797 89.4903 30.9286 89.1563 31.0894C88.3485 31.4783 88.1146 31.5185 87.8526 31.3134C87.626 31.1359 87.4001 30.7371 87.3219 30.3765C87.2459 30.0255 87.0994 29.9326 86.8098 30.0517C86.6802 30.105 86.3064 30.2469 85.9793 30.3669C83.779 31.1743 82.0501 31.0088 81.4237 29.9309C81.3119 29.7387 81.0806 29.4302 80.9095 29.2454C80.609 28.9207 80.5839 28.9093 80.166 28.9093C79.8199 28.9093 79.6369 28.9592 79.2501 29.159C78.9843 29.2963 78.6232 29.5295 78.4477 29.6772C77.6687 30.3326 77.4858 30.3954 77.1411 30.1254C76.8858 29.9255 76.8918 29.7136 77.1682 29.1684C77.393 28.725 77.4513 28.3998 77.3203 28.3192C77.2812 28.2952 76.874 28.4629 76.4153 28.6919C75.5881 29.105 74.5581 29.5339 73.5676 29.8779C72.6479 30.1973 72.0204 30.095 71.2391 29.4982C70.9177 29.2527 70.8533 29.2316 70.5371 29.2681C70.166 29.311 69.6983 29.5165 69.3068 29.8086C69.0065 30.0328 68.7365 30.4862 68.5379 31.0999C67.9344 32.9652 66.6096 34.6488 64.5325 36.19C62.0645 38.0212 58.9772 39.5928 56.3117 40.3747C53.7849 41.1159 51.4105 41.4113 50.4995 41.0979ZM52.5196 40.0484C54.7431 39.8415 56.9429 39.2754 58.9579 38.3916C61.3044 37.3625 63.8735 35.5895 65.8327 33.6471C66.7796 32.7084 67.0764 32.2673 67.3148 31.445C67.5467 30.6451 67.6259 30.6479 65.5688 31.3824C59.8358 33.4295 54.9189 35.5682 52.948 36.872C52.0965 37.4353 50.5154 38.7953 50.3566 39.101C50.1379 39.5221 50.3898 40.0598 50.8466 40.1471C51.0374 40.1835 51.1207 40.1786 52.5196 40.0484ZM89.5963 29.8292C89.7492 29.7515 89.9549 29.5794 90.0535 29.4467C90.3641 29.0286 90.3636 29.0148 90.0431 29.1274C89.5649 29.2954 89.3415 29.4353 89.0278 29.7635L88.7304 30.0747L89.0244 30.0225C89.186 29.9939 89.4434 29.9068 89.5963 29.8292ZM115.794 29.224C116.168 28.9798 116.533 28.5378 116.459 28.4188C116.404 28.3305 116.072 28.4151 115.775 28.5932C115.419 28.8063 115.115 29.4645 115.373 29.4645C115.402 29.4645 115.591 29.3563 115.794 29.224ZM4.78375 40.4146C3.61893 40.3048 2.68022 39.8345 1.69286 38.8661C0.350934 37.5499 -0.171005 36.0241 0.0484786 34.0589C0.280503 31.9814 1.13027 30.2954 2.8352 28.5297C6.11116 25.137 10.3699 22.9213 16.0485 21.6553C17.3831 21.3578 17.7731 21.2178 18.1959 20.8843C18.6946 20.4911 18.8499 20.0836 19.2505 18.1183C19.4516 17.1318 19.8621 15.2753 20.1629 13.9928C20.4636 12.7103 20.6989 11.6477 20.6857 11.6317C20.6725 11.6156 19.9165 12.3177 19.0057 13.1919C15.8959 16.1769 15.6337 16.4111 15.1164 16.6646C14.3201 17.0549 13.7616 16.9715 13.4749 16.4195C13.4072 16.2893 13.3484 16.0531 13.3443 15.8947C13.3382 15.666 13.3794 15.5702 13.5442 15.429C13.8402 15.1756 13.9525 15.2062 14.1155 15.5849C14.2972 16.0069 14.5466 16.1407 14.8197 15.9626C15.0197 15.8321 16.1759 14.7313 19.1436 11.8458L20.9375 10.1016L21.2137 9.21564C22.0388 6.56794 23.2311 3.14518 23.561 2.47712C23.9884 1.61167 24.7671 0.611261 25.2952 0.249246C25.7263 -0.0462818 26.1383 -0.0791989 26.5184 0.151519C27.016 0.453525 27.0688 0.942517 26.7582 2.37045C26.3027 4.46456 25.2999 6.23809 23.0749 8.88488C22.2716 9.84039 21.9791 10.2727 21.7475 10.8466C21.5597 11.3119 21.4939 11.5866 20.8785 14.474C20.6702 15.4511 20.3013 17.0862 20.0587 18.1076C19.5872 20.0921 19.5571 20.3143 19.7264 20.555C19.8989 20.8001 20.2129 20.8122 21.3461 20.6173C23.3894 20.266 24.411 20.185 26.8671 20.1799C28.4713 20.1766 29.3191 20.2043 29.6554 20.2709C31.8873 20.7129 32.7031 21.5457 32.037 22.7019C31.6668 23.3444 31.185 23.5792 30.8938 23.2589C30.7098 23.0565 30.7388 22.9625 31.1054 22.5723C31.6728 21.9684 31.503 21.6469 30.4575 21.3451C29.1909 20.9796 28.6677 20.9303 26.5325 20.9755C24.5867 21.0167 23.4698 21.1074 21.2905 21.4011C19.9715 21.579 19.697 21.6513 19.4399 21.8885C19.1598 22.1471 19.0855 22.3233 18.6169 23.8381C17.7958 26.4927 17.0005 28.4988 15.8578 30.797C13.4051 35.7303 11.3819 38.1826 8.62493 39.5636C7.89727 39.9281 6.67043 40.3308 6.12068 40.3856C5.87611 40.41 5.60909 40.4392 5.5273 40.4504C5.44551 40.4616 5.11091 40.4455 4.78375 40.4146ZM6.90286 39.3803C8.75821 38.8659 10.5498 37.5458 11.9868 35.6343C14.2305 32.6499 16.0677 28.9536 17.5188 24.5047C18.1512 22.5658 18.2871 22.0618 18.1778 22.0618C17.9142 22.0618 16.2239 22.4103 15.1191 22.6925C11.4483 23.6301 8.53059 24.9779 5.87574 26.9623C4.67955 27.8565 3.12556 29.3352 2.47094 30.2022C1.88785 30.9745 1.31879 32.0904 1.05396 32.9809C0.880152 33.5653 0.855459 33.779 0.852946 34.7205C0.850342 35.6967 0.868492 35.849 1.05339 36.402C1.86396 38.8265 4.34467 40.0895 6.90286 39.3803ZM22.9535 7.29879C24.0037 6.52588 25.0548 4.96503 25.5574 3.43221C25.813 2.65254 25.9644 1.57642 25.8827 1.11925L25.8246 0.793394L25.4328 1.22018C24.5498 2.18209 24.0519 3.14964 23.26 5.44259C22.9196 6.42843 22.6357 7.2254 22.5546 7.42283C22.4772 7.61145 22.5664 7.58371 22.9535 7.29879ZM21.2533 30.367C21.2533 30.0444 21.3812 29.939 22.2199 29.5705C24.0082 28.7847 24.7611 28.1569 25.305 26.9981C25.6206 26.3258 25.9631 25.9112 26.2031 25.9112C26.261 25.9112 26.3945 26.0075 26.4999 26.1252C26.6179 26.2571 26.9038 26.4164 27.2447 26.5402C27.8735 26.7685 28.1297 27.0126 28.0572 27.3145C28.0323 27.4181 27.8966 27.6911 27.7556 27.9211C27.5626 28.2359 27.4992 28.4226 27.4992 28.6755C27.4992 28.8604 27.526 29.0282 27.5589 29.0484C27.6113 29.0807 29.727 28.1294 33.336 26.4509C34.6413 25.8439 34.9229 25.7445 35.3228 25.75C35.9164 25.7582 36.0555 26.1127 35.8542 27.1041C35.7327 27.7029 35.7303 27.7898 35.8311 27.9685C36.0264 28.3149 36.2596 28.3381 37.1867 28.1029C37.6419 27.9874 38.3888 27.7471 38.8466 27.5689C40.0262 27.1097 40.5522 26.9976 41.515 27.0003C42.1891 27.0022 42.4379 27.0365 42.9294 27.1951C43.5987 27.411 44.2725 27.7916 44.8238 28.2651C45.2996 28.6737 45.6081 28.7983 46.1442 28.7983C46.7326 28.7983 47.3445 28.6327 48.0793 28.2746C48.9581 27.8463 49.5241 27.2951 50.0262 26.3789C51.6714 23.3769 52.7477 21.8563 54.3719 20.2393C55.3508 19.2648 55.5629 19.1465 55.9626 19.3523C56.3417 19.5475 56.3698 19.8639 56.0794 20.6694C55.4448 22.4297 54.4942 23.9488 53.1448 25.3591C52.7699 25.7509 52.409 26.2056 52.3277 26.3886C52.2476 26.5689 52.1186 27.0599 52.0411 27.4797C51.9635 27.8996 51.8498 28.3811 51.7883 28.5499C51.6411 28.9541 51.7544 29.1233 52.2756 29.2774C52.7794 29.4264 54.1917 29.4256 55.224 29.2758C56.2399 29.1284 58.2783 28.6792 58.7622 28.4961C59.4271 28.2445 59.6948 28.3416 59.6948 28.8342C59.6948 28.9831 59.6385 29.0514 59.4515 29.1292C59.1695 29.2465 55.5086 29.9884 54.3041 30.1724C52.9231 30.3833 52.1551 30.2431 51.2952 29.6229C50.8555 29.3058 50.6288 29.3231 49.9577 29.7249C49.6529 29.9074 49.3318 30.0568 49.2443 30.0568C49.0304 30.0568 48.8264 29.8198 48.6856 29.4077C48.5163 28.9124 48.4229 28.8829 47.8802 29.1528C46.905 29.638 45.7279 29.7335 44.9959 29.3869C44.7825 29.2858 44.4128 28.9851 44.0803 28.6421C43.4517 27.9935 43.2493 27.8846 42.868 27.9894C42.5677 28.072 41.659 28.7531 41.1716 29.261C40.7948 29.6536 40.5661 29.7064 40.3022 29.4617C40.0892 29.2641 40.0963 29.1627 40.3625 28.6017C40.5777 28.1484 40.6461 27.8355 40.5298 27.8364C40.4992 27.8366 39.9387 28.0223 39.2844 28.249C37.8894 28.7324 36.5329 29.0944 36.1169 29.0944C35.7606 29.0944 35.4235 28.9619 35.1098 28.6985C34.9812 28.5905 34.8031 28.5022 34.7141 28.5022C34.625 28.5022 34.2644 28.7021 33.9128 28.9464C33.4022 29.301 33.216 29.3905 32.9887 29.3905C32.5628 29.3905 32.4523 29.2411 32.0718 28.1506C32.0237 28.0127 31.8493 28.0374 31.4572 28.2377C30.3261 28.8152 28.0879 29.7387 27.5439 29.8523C26.7703 30.0138 26.5502 29.7777 26.4765 28.7071C26.4548 28.3908 26.4072 28.132 26.3707 28.132C26.2109 28.132 25.4485 28.5721 24.4506 29.2402C22.9373 30.2535 22.2356 30.575 21.5373 30.575C21.2757 30.575 21.2533 30.5586 21.2533 30.367ZM52.3463 24.9639C52.7728 24.5243 53.331 23.8534 53.5866 23.4729C54.048 22.7862 54.7585 21.4162 54.6892 21.3471C54.6693 21.3273 54.3044 21.6549 53.8784 22.0751C53.0256 22.9161 52.351 23.8679 51.8152 24.9859C51.6396 25.3523 51.4817 25.6771 51.4643 25.7076C51.4469 25.7382 51.4637 25.7632 51.5017 25.7632C51.5396 25.7632 51.9197 25.4035 52.3463 24.9639ZM74.0453 24.232C73.536 24.0472 73.7389 22.9661 74.3434 22.6433C74.8329 22.3819 75.233 22.5046 75.3438 22.9501C75.4018 23.1838 75.0525 23.8886 74.7888 24.0696C74.5799 24.213 74.2136 24.2931 74.0453 24.232Z" fill="white"></path></svg>