<?xml version="1.0" encoding="UTF-8"?> <svg xmlns="http://www.w3.org/2000/svg" width="121" height="78" viewBox="0 0 121 78" fill="none"><path d="M34.166 25.5356C34.166 35.1734 38.045 44.3154 44.7479 50.9782C46.4236 52.6362 48.27 54.1547 50.2716 55.4872L50.3647 55.5492V22.2197L44.7479 24.0636V42.9364C41.2878 37.9005 39.3639 31.8575 39.3639 25.5511V11.9621C43.1653 11.2028 46.9667 10.1647 50.3647 9.111V3.6568C45.5237 5.22178 39.6121 6.86424 34.166 7.56151V25.5356Z" fill="white"></path><path d="M67.5719 51.1641L60.357 55.9365L53.1421 51.1641C52.9559 51.0401 52.7697 50.9162 52.5835 50.7922V57.0212L60.3105 62.1345H60.388L70.4269 55.4872C71.994 54.449 73.4525 53.3179 74.8024 52.0783L71.1251 48.406C70.0235 49.3977 68.8442 50.3274 67.5719 51.1641Z" fill="white"></path><path d="M44.748 21.166L50.3803 19.3221V13.4031L44.748 15.247V21.166Z" fill="white"></path><path d="M60.357 0C59.6277 0.309898 56.6487 1.5185 52.5835 2.91304V8.38274C55.8108 7.32908 58.5261 6.30642 60.357 5.59366C64.3912 7.17413 72.8629 10.2731 81.3501 11.9466V25.5356C81.3501 31.718 79.5037 37.6371 76.1678 42.6109L72.9249 39.3105C75.4696 35.3748 76.866 30.7419 76.866 25.9384V15.6343L60.2949 10.1492L54.4454 12.0705V46.1748L60.2174 50.8232L67.0444 45.6634C67.8978 45.0127 68.7046 44.3154 69.4649 43.5716L70.7217 44.8577L70.7372 44.8422L76.4315 50.5288C82.8552 43.897 86.5635 34.9565 86.5635 25.5356V7.56151C75.2989 6.10499 62.0327 0.69727 60.357 0ZM71.1561 26.6667C71.1561 29.7192 70.3803 32.6787 68.9529 35.2819L65.4307 31.7025L62.8706 36.8933L65.5859 39.6514C65.0428 40.1628 64.4687 40.6431 63.8636 41.0924L60.2018 43.7731V16.3006L59.876 16.2077L60.2018 16.0992V16.3006L71.1561 19.7095V26.6667Z" fill="white"></path><path d="M37.8899 76.8392C36.8503 77.3505 35.7642 77.3196 34.6625 77.0716C33.3282 76.7772 32.1179 76.1419 30.9232 75.5222C30.4887 75.3052 30.0698 75.0573 29.5888 74.8094C30.5663 74.0501 31.1404 73.1049 31.3576 71.9738C31.8231 69.6341 30.7215 66.8295 27.5097 66.5196C25.5081 66.3182 23.7703 67.1859 22.9014 68.9058C22.3428 70.0215 22.2187 71.1991 22.529 72.4077C22.9014 73.8487 23.7548 74.8714 25.1668 75.4137C26.2218 75.8166 27.2924 75.7856 28.3786 75.5066C28.5182 75.4757 28.7044 75.4912 28.844 75.5531C29.3871 75.8475 29.9302 76.1574 30.4422 76.4983C31.5749 77.2266 32.7696 77.7999 34.135 77.9549C35.5159 78.1098 36.8192 77.8774 37.9829 77.0871C38.0605 77.0406 38.1381 76.9477 38.1381 76.8392C38.0605 76.7617 37.9519 76.8082 37.8899 76.8392ZM25.7719 74.6079C24.9961 74.1121 24.5306 73.3993 24.2513 72.5471C23.8944 71.4005 23.8634 70.2229 24.2048 69.0608C24.5306 67.9297 25.3685 67.2169 26.4391 67.1084C27.6183 67 28.6734 67.5733 29.2164 68.5959C29.6664 69.4482 29.8371 70.3624 29.8991 71.3385C29.7905 71.9583 29.744 72.5936 29.5733 73.1979C29.0768 74.9643 27.308 75.5841 25.7719 74.6079Z" fill="white"></path><path d="M18.2625 67.8676C17.5023 67.8521 16.7575 67.8521 15.9972 67.8366C15.9507 67.8366 15.8886 67.9141 15.8886 67.9451C15.8886 67.9916 15.9507 68.0535 15.9972 68.069C16.323 68.224 16.3696 68.286 16.2144 68.6114C16.0593 68.9522 15.8886 69.3086 15.7024 69.634C15.3766 70.2693 15.0352 70.8891 14.6939 71.5399C14.6163 71.4004 14.5542 71.2765 14.4766 71.168C13.9956 70.3003 13.5146 69.4326 13.0336 68.5494C12.863 68.255 12.9095 68.162 13.2043 68.0535C13.2664 68.038 13.2974 67.9761 13.4215 67.8676C12.0251 67.8676 10.7218 67.8676 9.43394 67.8676C9.43394 67.8986 9.41843 67.9296 9.41843 67.9606C9.49601 67.9916 9.55807 68.0535 9.63565 68.0535C10.1477 68.1465 10.1787 68.1465 9.99252 68.6423C9.43394 70.1144 8.84434 71.5864 8.27025 73.0739C8.2237 73.1978 8.16163 73.3373 8.09957 73.5077C7.95993 73.1359 7.8358 72.826 7.71167 72.5161C7.21516 71.2145 6.71865 69.8974 6.23765 68.5959C6.09801 68.224 6.17559 68.1155 6.56349 68.0535C6.64107 68.038 6.71865 67.9606 6.79623 67.9141C6.70313 67.8831 6.62555 67.8211 6.53246 67.8056C5.64805 67.7901 4.76364 67.7901 3.89474 67.8056C3.81716 67.8056 3.72406 67.8831 3.64648 67.9141C3.72406 67.9606 3.80165 68.0381 3.89474 68.0381C4.28264 68.069 4.54641 68.2705 4.71709 68.6114C4.81018 68.8128 4.91879 69.0297 4.99637 69.2311C5.78769 71.168 6.56349 73.1049 7.3548 75.0417C7.4479 75.2742 7.50996 75.6305 7.82028 75.5841C7.97544 75.5686 8.14612 75.2742 8.2237 75.0727C8.95295 73.3838 9.65117 71.6948 10.3649 70.0214C10.6132 69.4481 10.8614 68.8903 11.1562 68.2085C11.3734 68.4409 11.5596 68.5959 11.6682 68.7973C12.0717 69.4326 12.413 70.1144 12.8475 70.7342C13.6233 71.8033 13.887 72.9809 13.7164 74.2825C13.6853 74.5459 13.6698 74.8403 13.5457 75.0572C13.4681 75.1812 13.1733 75.1812 12.9871 75.2432C12.9406 75.2587 12.9095 75.3206 12.863 75.3516C12.9095 75.3981 12.9561 75.4601 13.0026 75.4756C13.0957 75.5066 13.1888 75.4911 13.2819 75.4911C14.1198 75.4911 14.9576 75.4911 15.7955 75.4756C15.9351 75.4756 16.0748 75.3981 16.2144 75.3516C16.0748 75.3051 15.9351 75.2122 15.7955 75.1967C15.3455 75.1502 15.2214 75.0727 15.1904 74.6234C15.1593 73.8951 15.1593 73.1824 15.1593 72.4541C15.1593 72.3146 15.2059 72.1597 15.2679 72.0357C15.9351 70.8581 16.5868 69.696 17.2695 68.5339C17.4402 68.255 17.7195 68.0845 18.0608 68.0381C18.1539 68.0226 18.2315 67.9761 18.3401 67.9296C18.2936 67.9141 18.2781 67.8676 18.2625 67.8676Z" fill="white"></path><path d="M112.491 74.4064C112.351 73.6007 112.243 72.7949 112.118 71.9892C111.917 70.6721 111.7 69.3551 111.482 68.038C111.467 67.9295 111.343 67.7436 111.296 67.7436C111.172 67.7591 111.032 67.8521 110.955 67.945C110.846 68.0845 110.769 68.2704 110.691 68.4409C109.884 70.1143 109.093 71.8033 108.271 73.5387C107.96 72.8879 107.681 72.2836 107.386 71.6793C106.812 70.4862 106.222 69.2931 105.633 68.1155C105.555 67.9605 105.369 67.7746 105.229 67.7591C104.981 67.7436 104.997 68.0225 104.966 68.2084C104.841 68.9832 104.717 69.7579 104.593 70.5327C104.376 71.9272 104.174 73.3218 103.973 74.7008C103.926 75.0107 103.817 75.2276 103.461 75.2586C103.367 75.2741 103.29 75.3516 103.197 75.3981C103.29 75.4446 103.383 75.522 103.476 75.522C104.143 75.5375 104.795 75.522 105.462 75.5065C105.555 75.5065 105.633 75.4136 105.726 75.3671C105.648 75.3206 105.571 75.2586 105.478 75.2431C104.904 75.1811 104.81 75.0572 104.873 74.4839C104.95 73.8641 105.028 73.2288 105.105 72.609C105.198 71.9427 105.291 71.2919 105.385 70.6256C105.509 70.7496 105.586 70.8891 105.648 71.013C106.315 72.3766 106.967 73.7556 107.634 75.1192C107.712 75.2741 107.883 75.3981 108.022 75.522C108.131 75.3826 108.286 75.2741 108.364 75.1192C108.891 74.0035 109.403 72.8879 109.931 71.7723C110.132 71.3539 110.334 70.9355 110.567 70.4707C110.598 70.5637 110.613 70.6101 110.613 70.6411C110.769 71.7878 110.939 72.9344 111.079 74.081C111.125 74.5149 111.343 74.9642 110.939 75.3981C111.079 75.4446 111.156 75.491 111.25 75.491C111.994 75.5065 112.739 75.5065 113.484 75.5065C113.546 75.5065 113.624 75.4136 113.686 75.3671C113.608 75.3361 113.53 75.2741 113.453 75.2586C112.77 75.1811 112.615 75.0572 112.491 74.4064Z" fill="white"></path><path d="M92.708 67.9141C91.9012 67.8366 89.0773 67.8366 88.4877 67.8366C88.3325 67.8366 88.1773 67.8366 88.0222 67.8521C87.9756 67.8521 87.9291 67.9141 87.9136 67.9606C87.9136 67.9761 87.9756 68.038 88.0067 68.0535C88.0687 68.069 88.1308 68.069 88.1929 68.069C88.6894 68.1155 88.8135 68.224 88.829 68.7198C88.8601 69.5101 88.8601 70.2848 88.8601 71.075C88.8601 72.2217 88.8601 73.3683 88.829 74.5149C88.8135 74.9643 88.798 75.2122 88.1929 75.2432C88.1463 75.2432 88.0843 75.3206 88.0377 75.3516C88.0998 75.3981 88.1463 75.4756 88.2084 75.4756C88.3791 75.4911 88.5653 75.4756 88.7359 75.4911C89.3721 75.5066 90.0237 75.5376 90.6599 75.5531C91.3271 75.5686 91.9943 75.5996 92.6459 75.5376C94.3993 75.3516 95.625 74.267 95.9974 72.5935C96.4939 70.3313 95.2992 68.1465 92.708 67.9141ZM94.3062 73.6162C94.0269 74.329 93.4683 74.7938 92.708 74.9178C92.1805 75.0107 91.6219 75.0107 91.0788 74.9798C90.4737 74.9333 90.2565 74.6854 90.241 74.0811C90.2099 73.4768 90.2255 72.8879 90.2255 72.2836C90.2255 72.0047 90.2255 71.7258 90.2255 71.4469H90.241C90.241 70.5637 90.241 69.665 90.2565 68.7818C90.2565 68.6888 90.3651 68.5184 90.4427 68.5029C91.8546 68.255 93.6855 68.5649 94.3527 70.3623C94.7406 71.4314 94.7406 72.5316 94.3062 73.6162Z" fill="white"></path><path d="M71.2338 74.6853C71.1252 74.4994 71.0166 74.3135 70.939 74.112C70.0546 71.8808 69.1702 69.6495 68.2702 67.4337C68.1616 67.1548 68.053 66.8759 67.8978 66.6125C67.7582 66.3491 67.541 66.3801 67.4013 66.628C67.3703 66.69 67.3393 66.7674 67.3238 66.8294C66.4393 69.0917 65.5705 71.3539 64.686 73.6162C64.5464 73.9881 64.3912 74.3445 64.2206 74.7008C64.0499 75.0572 63.7551 75.2277 63.3517 75.2586C63.2586 75.2586 63.181 75.3361 63.0879 75.3826C63.181 75.4291 63.2741 75.5066 63.3672 75.5066C64.174 75.5221 64.9808 75.5221 65.7877 75.5066C65.8808 75.5066 65.9584 75.4291 66.0514 75.3826C65.9584 75.3361 65.8653 75.2586 65.7722 75.2586C65.2757 75.2122 65.167 75.0882 65.3222 74.6079C65.5239 73.9726 65.7722 73.3683 65.9894 72.733C66.0514 72.5625 66.1445 72.516 66.3152 72.516C67.0445 72.5315 67.7737 72.5315 68.4875 72.516C68.6736 72.516 68.7667 72.578 68.8288 72.7485C69.0771 73.4148 69.3253 74.0655 69.5891 74.7163C69.6822 74.9642 69.7908 75.1812 69.465 75.4136C69.6046 75.4601 69.6667 75.5066 69.7287 75.5066C70.5666 75.5066 71.4045 75.5066 72.2423 75.5066C72.3044 75.5066 72.3665 75.4291 72.444 75.3826C72.3665 75.3516 72.2889 75.2741 72.2268 75.2741C71.7768 75.2586 71.4665 75.0417 71.2338 74.6853ZM66.2997 71.8188C66.6721 70.8271 67.0134 69.8664 67.4013 68.8283C67.7737 69.8664 68.1306 70.8271 68.4875 71.8188C67.7582 71.8188 67.06 71.8188 66.2997 71.8188Z" fill="white"></path><path d="M37.5331 68.0071C37.7348 68.0535 37.8589 68.0845 37.983 68.1C38.2778 68.131 38.464 68.255 38.4951 68.5649C38.5106 68.6888 38.5261 68.8128 38.5261 68.9367C38.5261 70.0059 38.5416 71.0905 38.5261 72.1597C38.5261 72.64 38.4796 73.1204 38.402 73.5852C38.2623 74.4219 37.6882 74.9178 36.8659 75.0107C35.9815 75.1192 35.2522 74.7783 34.9264 74.0036C34.7557 73.6007 34.6471 73.1359 34.6316 72.6865C34.585 71.6019 34.6161 70.5172 34.6161 69.4326C34.6161 69.1382 34.6316 68.8593 34.6471 68.5649C34.6626 68.2705 34.8178 68.1 35.1436 68.0845C35.2367 68.0845 35.3298 68.0071 35.4229 67.9606C35.3143 67.9141 35.2212 67.8521 35.1126 67.8521C34.2902 67.8366 33.4524 67.8521 32.63 67.8521C32.5214 67.8521 32.4128 67.8831 32.3197 67.8986C32.3197 67.9296 32.3197 67.9606 32.3042 67.9915C32.3507 68.0225 32.3973 68.069 32.4438 68.0845C33.1731 68.2705 33.1731 68.255 33.1886 69.0142C33.1886 69.3086 33.1886 69.5875 33.1886 69.8819C33.2041 70.9201 33.1731 71.9737 33.2352 73.0119C33.3127 74.143 33.8092 75.0727 34.9574 75.4756C35.7643 75.77 36.6021 75.7855 37.44 75.5531C38.3865 75.3051 39.0226 74.7008 39.3174 73.7712C39.4415 73.3838 39.5191 72.9809 39.5191 72.578C39.5657 71.4779 39.5502 70.3623 39.5657 69.2621C39.5657 69.0452 39.5657 68.8283 39.5967 68.6113C39.6277 68.224 39.7208 68.1465 40.1087 68.0845C40.2018 68.069 40.2794 68.0225 40.4035 67.9915C40.1863 67.8211 37.8434 67.8056 37.5331 68.0071Z" fill="white"></path><path d="M86.75 74.7474C86.6104 74.5149 86.4707 74.267 86.3621 74.0036C85.5708 72.1287 84.7795 70.2538 83.9882 68.379C83.9106 68.193 83.833 67.9916 83.7244 67.8211C83.6003 67.6042 83.3986 67.6042 83.2589 67.8211C83.1658 67.9761 83.0883 68.131 83.0262 68.286C82.5607 69.4481 82.0952 70.6102 81.6298 71.7723C81.2419 72.7175 80.8695 73.6782 80.4816 74.6234C80.3419 74.9798 80.1247 75.2587 79.6903 75.2742C79.6127 75.2742 79.5351 75.3672 79.4575 75.4136C79.5351 75.4601 79.6127 75.5376 79.6903 75.5376C80.2023 75.5376 80.7298 75.5376 81.2419 75.5376C81.4436 75.5376 81.6298 75.5531 81.8315 75.5376C81.8935 75.5376 81.9556 75.4601 82.0177 75.4291C81.9556 75.3826 81.8935 75.3362 81.8159 75.2897C81.8004 75.2742 81.7539 75.2897 81.7229 75.2897C81.335 75.2587 81.2574 75.1657 81.3815 74.7938C81.5522 74.2825 81.7694 73.7712 81.9556 73.2598C82.0177 73.0739 82.1108 73.0274 82.297 73.0274C82.9486 73.0429 83.6003 73.0429 84.252 73.0429C84.4382 73.0429 84.5312 73.1204 84.5933 73.2908C84.7795 73.7712 84.9657 74.2515 85.1674 74.7319C85.2605 74.9798 85.3846 75.2122 84.9967 75.4601C85.1984 75.5066 85.2915 75.5376 85.4001 75.5376C86.1139 75.5376 86.8276 75.5531 87.5413 75.5376C87.6189 75.5376 87.6965 75.4756 87.7741 75.4446C87.6965 75.3981 87.6344 75.3052 87.5569 75.3052C87.1845 75.2277 86.9207 75.0418 86.75 74.7474ZM82.2814 72.3302C82.6073 71.4624 82.9176 70.6412 83.2589 69.758C83.6003 70.6412 83.9106 71.4624 84.2364 72.3302C83.5693 72.3302 82.9486 72.3302 82.2814 72.3302Z" fill="white"></path><path d="M102.126 74.143C101.94 74.7008 101.723 74.8868 101.133 74.9023C100.776 74.9178 100.435 74.9023 100.078 74.8713C99.6437 74.8403 99.442 74.6233 99.4265 74.1895C99.4109 73.8641 99.4109 73.5232 99.4109 73.1978C99.4109 72.7175 99.4109 72.2371 99.4109 71.7258C99.9075 71.7258 100.357 71.7258 100.823 71.7258C101.288 71.7258 101.583 71.9272 101.599 72.3766C101.599 72.4386 101.692 72.5005 101.738 72.5625C101.785 72.4851 101.847 72.4076 101.847 72.3301C101.894 71.9117 101.909 71.4779 101.94 71.0595C101.94 70.9821 101.925 70.9046 101.909 70.7961C101.102 71.2765 100.249 70.9975 99.442 71.075C99.442 70.1763 99.442 69.3396 99.442 68.4719C99.985 68.4719 100.482 68.4409 100.994 68.4719C101.537 68.5029 101.661 68.6578 101.754 69.1846C101.769 69.2466 101.831 69.3086 101.878 69.3706C101.925 69.3241 102.033 69.2621 102.033 69.2156C102.08 68.7353 102.095 68.255 102.126 67.8211C101.692 67.8211 101.273 67.8211 100.869 67.8211C99.7057 67.8211 98.5421 67.8056 97.3939 67.8056C97.3163 67.8056 97.2387 67.8676 97.1611 67.8986C97.2387 67.9451 97.3008 68.0225 97.3939 68.038C97.968 68.1155 98.0611 68.162 98.0611 68.7198C98.0766 70.6567 98.0611 72.5935 98.03 74.5304C98.03 75.0882 97.9835 75.0882 97.4249 75.2276C97.3628 75.2431 97.3163 75.3206 97.2542 75.3671C97.3008 75.3981 97.3628 75.4601 97.4249 75.4756C97.5335 75.4911 97.6576 75.4911 97.7663 75.4911C98.5576 75.5066 99.3334 75.5066 100.125 75.5221C100.699 75.5221 101.257 75.5375 101.831 75.5375C102.111 75.5375 102.281 75.4291 102.312 75.1347C102.343 74.8093 102.406 74.4994 102.437 74.174C102.437 74.0655 102.374 73.9571 102.328 73.8641C102.235 73.9726 102.157 74.05 102.126 74.143Z" fill="white"></path><path d="M46.2996 73.8796C46.253 73.9881 46.222 74.0966 46.1755 74.205C46.0668 74.5459 45.8806 74.8403 45.5083 74.8558C45.0118 74.8868 44.5152 74.8713 44.0187 74.8558C43.7239 74.8403 43.5067 74.6389 43.5067 74.329C43.4912 73.4768 43.5067 72.609 43.5067 71.7258C44.0032 71.7258 44.4532 71.7258 44.8876 71.7258C45.4307 71.7413 45.5548 71.8498 45.6634 72.3766C45.6789 72.4541 45.7565 72.5161 45.8031 72.5781C45.8496 72.5006 45.9272 72.4386 45.9272 72.3611C45.9582 71.9273 45.9893 71.4934 46.0048 71.0596C46.0048 70.9821 45.9893 70.9201 45.9737 70.8271C45.1669 71.292 44.3291 71.0131 43.5222 71.106C43.5222 70.2073 43.5222 69.3551 43.5222 68.4874C43.9877 68.4874 44.4221 68.4874 44.8566 68.4874C45.5548 68.5029 45.6479 68.5959 45.8341 69.2621C45.8496 69.3241 45.9117 69.3551 45.9582 69.4171C46.0048 69.3551 46.0824 69.2931 46.0824 69.2312C46.1134 68.9058 46.1444 68.5649 46.1599 68.2395C46.1755 68.0845 46.1599 67.9451 46.1599 67.8676C45.4152 67.8676 44.7014 67.8676 43.9877 67.8676C43.1498 67.8676 42.312 67.8521 41.4741 67.8521C41.381 67.8521 41.2879 67.9141 41.1948 67.9606C41.2879 68.0071 41.3655 68.0845 41.4586 68.0845C41.9551 68.131 42.0792 68.224 42.0792 68.7198C42.1103 70.3623 42.1103 71.9892 42.1103 73.6317C42.1103 74.0191 42.0792 74.391 42.0637 74.7783C42.0482 75.0727 41.893 75.2587 41.5827 75.2742C41.5362 75.2742 41.4741 75.2742 41.4276 75.2897C41.381 75.3206 41.35 75.3671 41.3034 75.3981C41.35 75.4446 41.381 75.5066 41.4276 75.5066C41.5517 75.5221 41.6758 75.5221 41.7999 75.5221C42.5757 75.5376 43.3515 75.5376 44.1273 75.5531C44.7014 75.5531 45.291 75.5686 45.8651 75.5686C46.1134 75.5686 46.2996 75.4911 46.3461 75.2277C46.4082 74.8868 46.4547 74.5304 46.4858 74.1895C46.5013 74.0965 46.4392 73.9881 46.4082 73.8796C46.3616 73.8796 46.3306 73.8796 46.2996 73.8796Z" fill="white"></path><path d="M78.9919 73.7711C78.7747 74.5614 78.2161 74.9023 77.4403 74.9797C76.1369 75.1192 74.9267 74.4994 74.3216 73.3373C73.732 72.2371 73.7009 71.075 74.1043 69.9129C74.4302 68.9832 75.1129 68.4099 76.0904 68.3169C76.5559 68.2705 77.0524 68.3014 77.5179 68.3789C78.4023 68.5494 78.7591 68.9522 78.9143 69.8354C78.9298 69.9129 79.0074 69.9904 79.0695 70.0524C79.116 69.9749 79.1936 69.8974 79.2091 69.8044C79.2246 69.541 79.2091 69.2621 79.2091 68.9987C79.2246 68.9987 79.2401 68.9987 79.2557 68.9987C79.2557 68.7353 79.2712 68.4564 79.2557 68.193C79.2557 68.1155 79.1781 67.9915 79.116 67.9761C77.9523 67.7281 76.7576 67.5422 75.5784 67.7746C73.9957 68.0845 72.9096 68.9987 72.5062 70.5792C72.0873 72.2526 72.4752 73.7247 73.8871 74.7473C75.3611 75.8165 77.0369 75.832 78.7436 75.3981C78.9143 75.3516 79.085 75.1192 79.147 74.9488C79.2557 74.5924 79.2867 74.205 79.3332 73.8176C79.3488 73.7092 79.2557 73.6007 79.2091 73.4767C79.1315 73.6007 79.0229 73.6782 78.9919 73.7711Z" fill="white"></path><path d="M120.466 67.8521C119.815 67.8366 119.163 67.8366 118.511 67.8521C118.418 67.8521 118.325 67.8831 118.247 67.8986C118.247 67.9296 118.247 67.9606 118.232 67.9761C118.294 68.007 118.356 68.069 118.434 68.0845C118.713 68.131 118.744 68.286 118.666 68.5184C118.62 68.6423 118.573 68.7508 118.527 68.8593C118.077 69.727 117.611 70.5947 117.146 71.4624C117.13 71.4779 117.099 71.4934 117.053 71.5244C116.804 71.075 116.541 70.6412 116.308 70.1918C116.013 69.6495 115.703 69.1072 115.424 68.5494C115.268 68.2395 115.299 68.193 115.61 68.069C115.672 68.0535 115.703 67.9915 115.749 67.9451C115.734 67.9141 115.718 67.8831 115.718 67.8366C115.47 67.8366 115.206 67.8366 114.958 67.8366C114.322 67.8366 113.701 67.8211 113.065 67.8211C113.003 67.8211 112.941 67.8831 112.879 67.9296C112.925 67.9761 112.972 68.0535 113.019 68.0535C113.562 68.1 113.856 68.4719 114.105 68.8903C114.477 69.4946 114.849 70.1144 115.206 70.7187C116.23 72.5006 116.184 72.0512 116.106 74.3754C116.091 75.0417 116.044 75.0727 115.408 75.2432C115.346 75.2587 115.299 75.3206 115.253 75.3671C115.299 75.4136 115.346 75.4756 115.392 75.4911C115.47 75.5221 115.563 75.5066 115.641 75.5066C116.494 75.5066 117.363 75.5066 118.216 75.4911C118.341 75.4911 118.48 75.3981 118.604 75.3516C118.48 75.3051 118.356 75.2432 118.232 75.2277C117.72 75.1812 117.58 75.0882 117.565 74.5769C117.534 73.8796 117.534 73.1668 117.534 72.4696C117.534 72.3301 117.58 72.1752 117.642 72.0512C118.309 70.8891 118.977 69.7425 119.659 68.5959C119.83 68.3014 120.109 68.131 120.466 68.069C120.559 68.0535 120.621 67.9761 120.714 67.9296C120.637 67.9141 120.544 67.8521 120.466 67.8521Z" fill="white"></path><path d="M60.1397 67.7901C59.6122 67.8211 59.1467 67.8521 58.6657 67.8521C57.9054 67.8676 57.1607 67.8676 56.4004 67.8521C55.5005 67.8211 54.6005 67.7746 53.7006 67.7436C53.623 67.7436 53.4989 67.8211 53.4989 67.883C53.4368 68.3014 53.3748 68.7198 53.3438 69.1381C53.3438 69.2001 53.4058 69.2776 53.4524 69.3551C53.4989 69.2931 53.592 69.2311 53.6075 69.1691C53.7006 68.8127 53.9178 68.5648 54.2902 68.5338C54.8798 68.5028 55.4694 68.5183 56.1211 68.5183C56.1211 69.1071 56.1211 69.6805 56.1211 70.2538C56.1056 71.6948 56.1056 73.1358 56.0901 74.5613C56.0901 75.0572 55.966 75.1656 55.5315 75.2276C55.4384 75.2431 55.3453 75.3206 55.2677 75.3671C55.3608 75.4136 55.4539 75.491 55.547 75.491C56.4935 75.491 57.4245 75.491 58.3709 75.491C58.464 75.491 58.5416 75.4136 58.6347 75.3826C58.5416 75.3361 58.464 75.2431 58.3709 75.2431C57.6572 75.1966 57.5951 75.1346 57.5331 74.4219C57.5331 74.3599 57.5331 74.2979 57.5331 74.236C57.5331 72.485 57.5176 70.7186 57.5176 68.9677C57.5176 68.8127 57.5331 68.6733 57.5486 68.5183C58.0606 68.5183 58.5261 68.4873 59.0071 68.5183C59.6588 68.5648 59.7208 68.6268 59.9225 69.2621C59.938 69.3241 60.0156 69.3551 60.0622 69.4015C60.1087 69.3396 60.1863 69.2776 60.1863 69.2156C60.2018 68.8902 60.1863 68.5803 60.1863 68.2549C60.1553 68.1 60.1397 67.9295 60.1397 67.7901Z" fill="white"></path><path d="M51.8078 71.7103C51.3733 71.292 50.8148 71.0131 50.3183 70.6567C50.0545 70.4707 49.7597 70.3003 49.5269 70.0679C48.9684 69.4791 49.2011 68.5494 50.0079 68.3479C50.3493 68.255 50.7527 68.286 51.1096 68.3479C51.5751 68.4254 51.8543 68.7663 51.9474 69.2466C51.9629 69.3551 52.0095 69.4636 52.056 69.5875C52.0871 69.5875 52.1336 69.5875 52.1647 69.5875C52.1957 69.5101 52.2422 69.4326 52.2422 69.3551C52.2578 68.9368 52.2733 68.5339 52.2578 68.1155C52.2578 68.038 52.1336 67.9296 52.056 67.8986C51.4199 67.7127 50.7527 67.6507 50.0855 67.7436C48.8132 67.9141 48.0374 68.7663 48.115 69.9129C48.146 70.5327 48.4563 71.0441 48.9218 71.4314C49.3252 71.7568 49.8062 72.0202 50.2252 72.3301C50.551 72.578 50.8923 72.8415 51.1096 73.1669C51.5285 73.7712 51.2958 74.6234 50.6751 74.9333C49.9148 75.3052 48.5029 75.0882 48.3012 73.7557C48.3012 73.7092 48.3012 73.6472 48.2701 73.6007C48.2236 73.5232 48.1771 73.4613 48.115 73.3993C48.0684 73.4767 47.9909 73.5387 47.9753 73.6162C47.9443 74.0346 47.9443 74.4684 47.9133 74.8868C47.8978 75.1812 48.0374 75.3206 48.2857 75.4136C48.8908 75.6305 49.5114 75.7235 50.1476 75.6615C50.9234 75.5995 51.6371 75.3516 52.1181 74.6853C52.7698 73.7866 52.6612 72.5161 51.8078 71.7103Z" fill="white"></path><path d="M3.52213 75.2588C3.41351 75.2433 3.28939 75.2433 3.18078 75.2433C2.69978 75.2279 2.56014 75.0884 2.51359 74.6081C2.48256 74.2517 2.45152 73.8798 2.45152 73.5234C2.43601 71.85 2.43601 70.1765 2.45152 68.4876C2.45152 68.1312 2.46704 67.7748 2.51359 67.4339C2.57565 66.9691 2.68426 66.9071 3.13423 66.8606C3.22732 66.8451 3.32042 66.8296 3.41352 66.7986C3.41352 66.7676 3.41352 66.7212 3.42903 66.6902C3.32042 66.6592 3.22732 66.6127 3.11871 66.5972C2.17224 66.5817 1.21025 66.5817 0.263771 66.5972C0.170675 66.5972 0.0775799 66.6902 0 66.7367C0.0775799 66.7831 0.155161 66.8451 0.248257 66.8606C0.822348 66.9381 0.96199 67.062 0.96199 67.6354C0.977506 69.8356 0.977506 72.0514 0.96199 74.2517C0.96199 74.5306 0.93096 74.8405 0.791316 75.0574C0.69822 75.1969 0.387899 75.1969 0.186191 75.2743C0.139643 75.2898 0.0930949 75.3518 0.062063 75.3828C0.108611 75.4293 0.139644 75.5068 0.201708 75.5223C0.294804 75.5532 0.403416 75.5377 0.512028 75.5377C1.41195 75.5377 2.31188 75.5377 3.21181 75.5377C3.32042 75.5377 3.44455 75.5377 3.55316 75.5068C3.59971 75.4913 3.66177 75.4293 3.66177 75.3983C3.63074 75.3363 3.56867 75.2743 3.52213 75.2588Z" fill="white"></path></svg> 