<svg width="26" height="20" viewBox="0 0 26 20" fill="none" xmlns="http://www.w3.org/2000/svg">
<path d="M16.0741 9.50765C16.6562 8.87449 17.0868 8.14751 17.3658 7.32671C17.6447 6.5059 17.7841 5.65968 17.7841 4.78803C17.7841 3.91638 17.6447 3.07015 17.3658 2.24935C17.0868 1.42854 16.6562 0.70156 16.0741 0.0684004C17.2754 0.207025 18.2729 0.725728 19.0666 1.62451C19.8601 2.52352 20.2568 3.57802 20.2568 4.78803C20.2568 5.99826 19.8601 7.05276 19.0666 7.95155C18.2729 8.85033 17.2754 9.36903 16.0741 9.50765ZM23.2561 19.9941V16.7844C23.2561 16.0386 23.1044 15.3291 22.8009 14.6558C22.4975 13.9825 22.0669 13.4048 21.5092 12.9225C22.558 13.2716 23.5235 13.7425 24.4056 14.3354C25.2877 14.9282 25.7288 15.7445 25.7288 16.7844V19.9941H23.2561ZM6.87561 8.17248C5.93989 7.23699 5.47203 6.10884 5.47203 4.78803C5.47203 3.46744 5.93989 2.33929 6.87561 1.40358C7.8111 0.467858 8.93925 0 10.2601 0C11.5806 0 12.7088 0.467858 13.6445 1.40358C14.5802 2.33929 15.0481 3.46744 15.0481 4.78803C15.0481 6.10884 14.5802 7.23699 13.6445 8.17248C12.7088 9.1082 11.5806 9.57605 10.2601 9.57605C8.93925 9.57605 7.8111 9.1082 6.87561 8.17248ZM0 19.9941V16.9527C0 16.2828 0.181945 15.6624 0.545835 15.0915C0.909725 14.5206 1.39594 14.0817 2.00447 13.7748C3.35675 13.112 4.72088 12.6149 6.09687 12.2833C7.47263 11.9518 8.86036 11.7861 10.2601 11.7861C11.6595 11.7861 13.0473 11.9518 14.4232 12.2833C15.799 12.6149 17.163 13.112 18.5153 13.7748C19.1238 14.0817 19.6101 14.5206 19.9739 15.0915C20.3381 15.6624 20.5201 16.2828 20.5201 16.9527V19.9941H0ZM10.2601 7.52404C11.0125 7.52404 11.6566 7.25614 12.1924 6.72034C12.7282 6.18454 12.9961 5.54043 12.9961 4.78803C12.9961 4.03562 12.7282 3.39152 12.1924 2.85572C11.6566 2.31991 11.0125 2.05201 10.2601 2.05201C9.50765 2.05201 8.86355 2.31991 8.32775 2.85572C7.79194 3.39152 7.52404 4.03562 7.52404 4.78803C7.52404 5.54043 7.79194 6.18454 8.32775 6.72034C8.86355 7.25614 9.50765 7.52404 10.2601 7.52404ZM2.05201 17.9421H18.4681V16.9527C18.4681 16.6757 18.3878 16.4192 18.2273 16.1832C18.0668 15.9474 17.8489 15.755 17.5734 15.6059C16.3949 15.0254 15.1932 14.5856 13.9684 14.2864C12.7433 13.9875 11.5072 13.8381 10.2601 13.8381C9.01266 13.8381 7.77655 13.9875 6.55173 14.2864C5.32668 14.5856 4.12489 15.0254 2.94635 15.6059C2.67092 15.755 2.45307 15.9474 2.29278 16.1832C2.13227 16.4192 2.05201 16.6757 2.05201 16.9527V17.9421Z" fill="#E3E3E3"/>
</svg>
